<svg width="26" height="26" viewBox="0 0 26 26" fill="none" xmlns="http://www.w3.org/2000/svg">
<g id="lets-icons:back">
<path id="Vector" d="M4.33335 10.833L3.56743 11.5989L2.80151 10.833L3.56743 10.0671L4.33335 10.833ZM22.75 19.4996C22.75 19.787 22.6359 20.0625 22.4327 20.2657C22.2295 20.4688 21.954 20.583 21.6667 20.583C21.3794 20.583 21.1038 20.4688 20.9006 20.2657C20.6975 20.0625 20.5833 19.787 20.5833 19.4996H22.75ZM8.9841 17.0156L3.56743 11.5989L5.09926 10.0671L10.5159 15.4837L8.9841 17.0156ZM3.56743 10.0671L8.9841 4.65039L10.5159 6.18222L5.09926 11.5989L3.56743 10.0671ZM4.33335 9.74964H15.1667V11.9163H4.33335V9.74964ZM22.75 17.333V19.4996H20.5833V17.333H22.75ZM15.1667 9.74964C17.1779 9.74964 19.1068 10.5486 20.5289 11.9707C21.9511 13.3929 22.75 15.3217 22.75 17.333H20.5833C20.5833 15.8964 20.0127 14.5186 18.9968 13.5028C17.981 12.487 16.6033 11.9163 15.1667 11.9163V9.74964Z" fill="#230050" fill-opacity="0.7"/>
</g>
</svg>
