<svg width="28" height="28" viewBox="0 0 28 28" fill="none" xmlns="http://www.w3.org/2000/svg">
<path d="M0.875 3.79167C0.875 3.01812 1.18229 2.27625 1.72927 1.72927C2.27625 1.18229 3.01812 0.875 3.79167 0.875H24.2083C24.9819 0.875 25.7237 1.18229 26.2707 1.72927C26.8177 2.27625 27.125 3.01812 27.125 3.79167V24.2083C27.125 24.9819 26.8177 25.7237 26.2707 26.2707C25.7237 26.8177 24.9819 27.125 24.2083 27.125H3.79167C3.01812 27.125 2.27625 26.8177 1.72927 26.2707C1.18229 25.7237 0.875 24.9819 0.875 24.2083V3.79167ZM3.79167 3.79167V24.2083H24.2083V3.79167H3.79167ZM12.5417 6.70833H15.4583C16.2319 6.70833 16.9737 7.01562 17.5207 7.56261C18.0677 8.10959 18.375 8.85145 18.375 9.625V21.2917H15.4583V15.4583H12.5417V21.2917H9.625V9.625C9.625 8.85145 9.93229 8.10959 10.4793 7.56261C11.0263 7.01562 11.7681 6.70833 12.5417 6.70833ZM12.5417 9.625V12.5417H15.4583V9.625H12.5417Z" fill="white"/>
</svg>
