<svg width="67" height="57" viewBox="0 0 67 57" fill="none" xmlns="http://www.w3.org/2000/svg">
<path d="M36.9577 20.0278C36.8741 20.0573 36.764 20.0259 36.6457 19.9342L26.7369 12.2428L24.4129 24.2465C24.3593 24.5391 24.166 24.6073 23.9268 24.4178L14.0207 16.7255L11.6966 28.7291C11.6431 29.0218 11.4497 29.09 11.2105 28.9004L0.908841 20.9052C0.588861 20.66 0.294088 20.0407 0.2465 19.5239C0.201292 19.0133 0.425477 18.7938 0.745224 19.0462L10.6514 26.7385L12.9754 14.7349C13.0289 14.4422 13.2223 14.374 13.4615 14.5635L23.3676 22.2559L25.6917 10.2522C25.7452 9.95954 25.9386 9.89137 26.1777 10.0809L36.0839 17.7732L38.4079 5.76958C38.4614 5.47689 38.6548 5.40872 38.894 5.59824L48.8027 13.2897L51.1294 1.28509C51.2066 0.899795 51.521 0.92237 51.8352 1.34522C52.1493 1.76808 52.3448 2.42233 52.2699 2.81381L49.8475 15.2944C49.7916 15.5809 49.5982 15.6491 49.3614 15.4658L39.4558 7.75923L37.1317 19.7629C37.1038 19.9061 37.0413 19.9984 36.9577 20.0278Z" fill="#215FF6"/>
<path d="M41.6862 32.4356C41.6026 32.4651 41.4926 32.4337 41.3742 32.342L31.4681 24.6496L29.144 36.6533C29.0881 36.9398 28.8947 37.008 28.6579 36.8246L18.7518 29.1323L16.4278 41.136C16.3718 41.4225 16.1785 41.4906 15.9417 41.3073L5.63736 33.313C5.315 33.0615 5.02023 32.4423 4.97502 31.9317C4.92743 31.4148 5.15162 31.1954 5.47136 31.4478L15.3775 39.1401L17.7015 27.1365C17.7575 26.85 17.9508 26.7818 18.1876 26.9651L28.0938 34.6575L30.4178 22.6538C30.4737 22.3673 30.6671 22.2991 30.9039 22.4825L40.81 30.1748L43.1341 18.1712C43.19 17.8846 43.3834 17.8165 43.6201 17.9998L53.5289 25.6912L55.8556 13.6867C55.9328 13.3014 56.2472 13.3239 56.5613 13.7468C56.8755 14.1696 57.0709 14.8239 56.9937 15.2092L54.5737 27.696C54.5178 27.9825 54.3244 28.0507 54.0876 27.8674L44.1789 20.1759L41.8548 32.1796C41.8347 32.3201 41.7699 32.4061 41.6862 32.4356Z" fill="#215FF6"/>
<path d="M46.5367 45.1645C46.4531 45.1939 46.3431 45.1625 46.2247 45.0708L36.3186 37.3785L33.9945 49.3821C33.9386 49.6686 33.7452 49.7368 33.5085 49.5535L23.6023 41.8611L21.2783 53.8648C21.2224 54.1513 21.029 54.2195 20.7922 54.0361L10.4855 46.0356C10.1655 45.7904 9.87075 45.1711 9.82316 44.6543C9.77557 44.1375 9.99976 43.918 10.3195 44.1704L20.2256 51.8628L22.5497 39.8591C22.6056 39.5726 22.799 39.5044 23.0358 39.6878L32.9419 47.3801L35.2659 35.3765C35.3218 35.09 35.5152 35.0218 35.752 35.2051L45.6581 42.8975L47.9822 30.8938C48.0381 30.6073 48.2315 30.5392 48.4683 30.7225L58.377 38.4139L60.7037 26.4094C60.7785 26.0179 61.0953 26.0466 61.4094 26.4695C61.7212 26.8862 61.9167 27.5404 61.8418 27.9319L59.4194 40.4125C59.3635 40.699 59.1701 40.7672 58.9333 40.5839L49.0246 32.8924L46.7005 44.8961C46.6828 45.0427 46.6204 45.135 46.5367 45.1645Z" fill="#215FF6"/>
</svg>
