<svg width="222" height="15" viewBox="0 0 222 15" fill="none" xmlns="http://www.w3.org/2000/svg">
<path fill-rule="evenodd" clip-rule="evenodd" d="M34.6371 6.39984C33.6461 5.43478 32.5329 4.81905 30.9458 4.81965C28.2607 4.82067 26.9312 6.58472 25.2546 8.82024C23.3707 11.3312 21.0272 14.4461 16.4949 14.4478C11.9626 14.4496 9.61625 11.3311 7.73375 8.82158C6.05841 6.58733 4.72985 4.82429 2.04473 4.8253C0.913919 4.83103 -0.00484952 3.75101 1.92617e-05 2.42173C0.000381352 1.09774 0.919747 0.0170234 2.04605 0.0165977C6.58216 0.00958838 8.92401 3.13239 10.8019 5.63647L10.8027 5.63756C12.478 7.87181 13.8066 9.63485 16.4917 9.63384C19.1768 9.63282 20.5064 7.86877 22.1829 5.63325C24.0668 3.12227 26.4104 0.00736481 30.9426 0.00565197C35.482 0.00393645 37.8194 3.1198 39.7015 5.62883L39.7038 5.63191C41.3791 7.86616 42.7032 9.62391 45.3928 9.62819C48.0805 9.63247 49.4055 7.86564 51.0804 5.63239L51.084 5.6276C52.9634 3.12191 55.3114 0.00171257 59.8437 7.08885e-07C64.3838 -0.00171604 66.7211 3.11506 68.5989 5.61898L68.6003 5.62096C70.2757 7.85521 71.6042 9.61825 74.2894 9.61724C74.644 9.61711 74.9781 9.72409 75.2693 9.91208C77.3446 9.54526 78.5418 7.94886 80.0067 5.99569L80.0103 5.99088C81.8896 3.48519 84.2377 0.364994 88.77 0.363281C89.0942 0.363159 89.4072 0.378939 89.7096 0.409263C89.7607 0.404696 89.8124 0.40236 89.8646 0.40234C94.4007 0.395331 96.7425 3.51812 98.6204 6.0222L98.6212 6.02331C100.297 8.25756 101.625 10.0206 104.31 10.0196C106.995 10.0186 108.325 8.25451 110.001 6.01899C111.885 3.50801 114.229 0.393107 118.761 0.391394C123.301 0.389679 125.638 3.50555 127.52 6.01458L127.522 6.01765C129.198 8.2519 130.522 10.0097 133.211 10.0139C135.899 10.0182 137.224 8.2514 138.899 6.01817L138.902 6.01334C140.782 3.50765 143.13 0.387455 147.662 0.385742C148.606 0.385385 149.455 0.519866 150.224 0.755637C153.182 1.64128 154.972 4.02797 156.468 6.02223L156.469 6.02331C157.764 7.75023 158.851 9.19564 160.518 9.76255C160.995 9.91851 161.519 10.0032 162.108 10.003C162.183 10.003 162.257 10.0077 162.33 10.017C164.9 9.94198 166.209 8.20612 167.849 6.01899C169.733 3.50801 172.076 0.393107 176.609 0.391394C181.148 0.389679 183.485 3.50552 185.367 6.01455L185.37 6.01765C187.045 8.2519 188.369 10.0097 191.059 10.0139C193.746 10.0182 195.071 8.25138 196.746 6.01813L196.75 6.01334C198.629 3.50765 200.977 0.387455 205.51 0.385742C210.05 0.384026 212.387 3.50082 214.265 6.00476L214.266 6.00671C215.942 8.24096 217.27 10.004 219.955 10.003C221.082 10.0026 222 11.0826 222 12.4066C222.004 13.7358 221.089 14.8113 219.963 14.8117C215.431 14.8134 213.084 11.695 211.202 9.18543C209.526 6.95118 208.198 5.18814 205.513 5.18916C202.828 5.19017 201.498 6.95422 199.822 9.18974C197.938 11.7007 195.594 14.8156 191.057 14.8226C186.521 14.8296 184.179 11.7068 182.302 9.20274L182.301 9.20167C180.625 6.96742 179.297 5.20438 176.612 5.20539C173.927 5.20641 172.597 6.97046 170.921 9.20598C169.037 11.717 166.693 14.8319 162.161 14.8336C160.71 14.8341 159.482 14.5148 158.423 13.9979C156.148 12.9053 154.643 10.9028 153.354 9.18543C152.206 7.65426 151.221 6.34439 149.85 5.67197C149.232 5.37686 148.535 5.21073 147.711 5.21105C147.623 5.21149 147.536 5.20537 147.451 5.19307C144.908 5.28573 143.606 7.01455 141.974 9.18974C140.09 11.7007 137.747 14.8156 133.21 14.8226C128.674 14.8296 126.332 11.7068 124.454 9.20275L124.453 9.20167C122.778 6.96742 121.449 5.20438 118.764 5.20539C116.079 5.20641 114.75 6.97046 113.073 9.20598C111.189 11.717 108.846 14.8319 104.313 14.8336C103.98 14.8337 103.658 14.8169 103.348 14.7848C103.307 14.7877 103.265 14.7892 103.223 14.7892C98.6911 14.7909 96.3447 11.6725 94.4622 9.16297C92.7869 6.92872 91.4583 5.16568 88.7732 5.1667C86.0881 5.16771 84.7585 6.93176 83.082 9.16728C81.1981 11.6783 78.8545 14.7932 74.3177 14.8002C69.7816 14.8072 67.4398 11.6844 65.5619 9.18031L65.5611 9.17921C63.8858 6.94496 62.5572 5.18192 59.8721 5.18293C57.187 5.18395 55.8574 6.948 54.1809 9.18352C52.297 11.6945 49.9534 14.8094 45.4212 14.8111C40.8889 14.8128 38.5425 11.6944 36.66 9.18486C36.3713 8.79986 36.0954 8.40436 35.8226 8.01341C35.4303 7.45121 35.0446 6.89843 34.6371 6.39984Z" fill="#1DE43D"/>
</svg>
