<svg width="349" height="236" viewBox="0 0 349 236" fill="none" xmlns="http://www.w3.org/2000/svg">
<rect width="349" height="236" fill="#1E1E1E"/>
<path d="M-22487 -2420C-22487 -2437.67 -22472.7 -2452 -22455 -2452H8094C8111.67 -2452 8126 -2437.67 8126 -2420V7256C8126 7273.67 8111.67 7288 8094 7288H-22455C-22472.7 7288 -22487 7273.67 -22487 7256V-2420Z" fill="#363535"/>
<path d="M-22455 -2451H8094V-2453H-22455V-2451ZM8125 -2420V7256H8127V-2420H8125ZM8094 7287H-22455V7289H8094V7287ZM-22486 7256V-2420H-22488V7256H-22486ZM-22455 7287C-22472.1 7287 -22486 7273.12 -22486 7256H-22488C-22488 7274.23 -22473.2 7289 -22455 7289V7287ZM8125 7256C8125 7273.12 8111.12 7287 8094 7287V7289C8112.22 7289 8127 7274.23 8127 7256H8125ZM8094 -2451C8111.12 -2451 8125 -2437.12 8125 -2420H8127C8127 -2438.23 8112.23 -2453 8094 -2453V-2451ZM-22455 -2453C-22473.2 -2453 -22488 -2438.23 -22488 -2420H-22486C-22486 -2437.12 -22472.1 -2451 -22455 -2451V-2453Z" fill="white" fill-opacity="0.1"/>
<g clip-path="url(#clip0_0_1)">
<rect width="1440" height="998" transform="translate(-922 -314)" fill="white"/>
<g clip-path="url(#clip1_0_1)">
<rect width="349" height="236" rx="8" fill="white"/>
<circle cx="98" cy="118" r="24" fill="#FF83C6"/>
<circle cx="175" cy="118" r="24" fill="#666565"/>
<circle cx="252" cy="118" r="24" fill="#709594"/>
<circle cx="252" cy="118" r="22.5" stroke="black" stroke-opacity="0.9" stroke-width="3"/>
</g>
<rect x="1.5" y="1.5" width="346" height="233" rx="6.5" stroke="#215FF6" stroke-width="3"/>
</g>
<path d="M264.467 144.689L264.468 144.694L264.494 147.796C264.494 147.797 264.494 147.797 264.494 147.798C264.493 148.118 264.243 148.363 263.938 148.363C263.633 148.363 263.383 148.117 263.383 147.796V142.939C263.383 142.11 262.716 141.399 261.867 141.399C261.021 141.399 260.35 142.092 260.35 142.939V146.401C260.35 146.722 260.1 146.967 259.795 146.967C259.49 146.967 259.24 146.722 259.24 146.401V141.543C259.24 140.714 258.573 140.003 257.723 140.003C256.878 140.003 256.207 140.697 256.207 141.543V145.019C256.207 145.34 255.957 145.585 255.652 145.585C255.346 145.585 255.096 145.34 255.096 145.019V135.04C255.096 134.211 254.43 133.5 253.58 133.5C252.735 133.5 252.064 134.194 252.064 135.04V150.482C252.064 150.719 251.922 150.926 251.703 151.012C251.474 151.089 251.225 151.019 251.078 150.851C251.078 150.851 251.078 150.851 251.078 150.851L247 146.152L246.99 146.14L246.978 146.128C246.699 145.846 246.309 145.69 245.919 145.69C245.52 145.69 245.129 145.843 244.847 146.128C244.48 146.499 244.462 146.986 244.534 147.365C244.605 147.746 244.782 148.12 244.95 148.412C246.132 150.52 247.429 152.52 248.574 154.282C248.609 154.335 248.643 154.387 248.677 154.44C249.501 155.715 250.273 156.908 250.854 157.918L250.854 157.92C251.238 158.583 252.024 160.217 252.477 161.16L252.504 161.217L252.64 161.5H252.955H264.889H265.258L265.367 161.147C265.747 159.917 266.277 158.098 266.713 156.361C267.143 154.647 267.5 152.944 267.5 151.982V144.689C267.5 143.86 266.833 143.149 265.984 143.149C265.138 143.149 264.467 143.843 264.467 144.689Z" fill="white" stroke="#333333"/>
<defs>
<clipPath id="clip0_0_1">
<rect width="1440" height="998" fill="white" transform="translate(-922 -314)"/>
</clipPath>
<clipPath id="clip1_0_1">
<rect width="349" height="236" rx="8" fill="white"/>
</clipPath>
</defs>
</svg>
