<svg width="349" height="236" viewBox="0 0 349 236" fill="none" xmlns="http://www.w3.org/2000/svg">
<rect width="349" height="236" fill="#1E1E1E"/>
<path d="M-22110 -2418C-22110 -2435.67 -22095.7 -2450 -22078 -2450H8471C8488.67 -2450 8503 -2435.67 8503 -2418V7258C8503 7275.67 8488.67 7290 8471 7290H-22078C-22095.7 7290 -22110 7275.67 -22110 7258V-2418Z" fill="#363535"/>
<path d="M-22078 -2449H8471V-2451H-22078V-2449ZM8502 -2418V7258H8504V-2418H8502ZM8471 7289H-22078V7291H8471V7289ZM-22109 7258V-2418H-22111V7258H-22109ZM-22078 7289C-22095.1 7289 -22109 7275.12 -22109 7258H-22111C-22111 7276.23 -22096.2 7291 -22078 7291V7289ZM8502 7258C8502 7275.12 8488.12 7289 8471 7289V7291C8489.22 7291 8504 7276.23 8504 7258H8502ZM8471 -2449C8488.12 -2449 8502 -2435.12 8502 -2418H8504C8504 -2436.23 8489.23 -2451 8471 -2451V-2449ZM-22078 -2451C-22096.2 -2451 -22111 -2436.23 -22111 -2418H-22109C-22109 -2435.12 -22095.1 -2449 -22078 -2449V-2451Z" fill="white" fill-opacity="0.1"/>
<g clip-path="url(#clip0_0_1)">
<rect width="1440" height="998" transform="translate(-545 -312)" fill="white"/>
<g clip-path="url(#clip1_0_1)">
<rect width="349" height="236" rx="8" fill="#34BE9D"/>
<rect width="349" height="236" rx="8" fill="white"/>
<path d="M190.437 94.833L199.291 99.7913L194.333 90.9372L199.291 82.083L190.437 87.0413L181.583 82.083L186.541 90.9372L181.583 99.7913L190.437 94.833ZM147.937 129.541L139.083 124.583L144.041 133.437L139.083 142.291L147.937 137.333L156.791 142.291L151.833 133.437L156.791 124.583L147.937 129.541ZM139.083 82.083L144.041 90.9372L139.083 99.7913L147.937 94.833L156.791 99.7913L151.833 90.9372L156.791 82.083L147.937 87.0413L139.083 82.083ZM169.754 120.262L161.112 111.621L168.62 104.112L177.262 112.754L169.754 120.262ZM166.106 100.818L157.818 109.106C156.437 110.416 156.437 112.718 157.818 114.1L199.15 155.431C200.531 156.812 202.833 156.812 204.143 155.431L212.431 147.143C213.812 145.833 213.812 143.531 212.431 142.15L171.1 100.818C169.718 99.4372 167.416 99.4372 166.106 100.818Z" fill="#5F75AB"/>
</g>
<rect x="1.5" y="1.5" width="346" height="233" rx="6.5" stroke="#34BE9D" stroke-width="3"/>
</g>
<defs>
<clipPath id="clip0_0_1">
<rect width="1440" height="998" fill="white" transform="translate(-545 -312)"/>
</clipPath>
<clipPath id="clip1_0_1">
<rect width="349" height="236" rx="8" fill="white"/>
</clipPath>
</defs>
</svg>
