<svg width="349" height="236" viewBox="0 0 349 236" fill="none" xmlns="http://www.w3.org/2000/svg">
<rect width="349" height="236" fill="#1E1E1E"/>
<path d="M-21727 -2418C-21727 -2435.67 -21712.7 -2450 -21695 -2450H8854C8871.67 -2450 8886 -2435.67 8886 -2418V7258C8886 7275.67 8871.67 7290 8854 7290H-21695C-21712.7 7290 -21727 7275.67 -21727 7258V-2418Z" fill="#363535"/>
<path d="M-21695 -2449H8854V-2451H-21695V-2449ZM8885 -2418V7258H8887V-2418H8885ZM8854 7289H-21695V7291H8854V7289ZM-21726 7258V-2418H-21728V7258H-21726ZM-21695 7289C-21712.1 7289 -21726 7275.12 -21726 7258H-21728C-21728 7276.23 -21713.2 7291 -21695 7291V7289ZM8885 7258C8885 7275.12 8871.12 7289 8854 7289V7291C8872.22 7291 8887 7276.23 8887 7258H8885ZM8854 -2449C8871.12 -2449 8885 -2435.12 8885 -2418H8887C8887 -2436.23 8872.23 -2451 8854 -2451V-2449ZM-21695 -2451C-21713.2 -2451 -21728 -2436.23 -21728 -2418H-21726C-21726 -2435.12 -21712.1 -2449 -21695 -2449V-2451Z" fill="white" fill-opacity="0.1"/>
<g clip-path="url(#clip0_0_1)">
<rect width="1440" height="998" transform="translate(-162 -312)" fill="white"/>
<circle cx="80" cy="209" r="9" stroke="#0075FF" stroke-width="2"/>
<g clip-path="url(#clip1_0_1)">
<rect width="349" height="236" rx="8" fill="white"/>
<mask id="path-7-inside-1_0_1" fill="white">
<path d="M41 94H308V143H41V94Z"/>
</mask>
<path d="M307 94V143H309V94H307Z" fill="black" fill-opacity="0.9" mask="url(#path-7-inside-1_0_1)"/>
<path d="M43.616 127V110.2H58.088V127H55.736V111.664L56.312 112.288H45.392L45.992 111.664V127H43.616ZM68.6069 127.144C67.2469 127.144 66.0469 126.864 65.0069 126.304C63.9829 125.744 63.1829 124.976 62.6069 124C62.0469 123.024 61.7669 121.904 61.7669 120.64C61.7669 119.376 62.0389 118.256 62.5829 117.28C63.1429 116.304 63.9029 115.544 64.8629 115C65.8389 114.44 66.9349 114.16 68.1509 114.16C69.3829 114.16 70.4709 114.432 71.4149 114.976C72.3589 115.52 73.0949 116.288 73.6229 117.28C74.1669 118.256 74.4389 119.4 74.4389 120.712C74.4389 120.808 74.4309 120.92 74.4149 121.048C74.4149 121.176 74.4069 121.296 74.3909 121.408H63.5669V119.752H73.1909L72.2549 120.328C72.2709 119.512 72.1029 118.784 71.7509 118.144C71.3989 117.504 70.9109 117.008 70.2869 116.656C69.6789 116.288 68.9669 116.104 68.1509 116.104C67.3509 116.104 66.6389 116.288 66.0149 116.656C65.3909 117.008 64.9029 117.512 64.5509 118.168C64.1989 118.808 64.0229 119.544 64.0229 120.376V120.76C64.0229 121.608 64.2149 122.368 64.5989 123.04C64.9989 123.696 65.5509 124.208 66.2549 124.576C66.9589 124.944 67.7669 125.128 68.6789 125.128C69.4309 125.128 70.1109 125 70.7189 124.744C71.3429 124.488 71.8869 124.104 72.3509 123.592L73.6229 125.08C73.0469 125.752 72.3269 126.264 71.4629 126.616C70.6149 126.968 69.6629 127.144 68.6069 127.144ZM78.0133 127V114.28H80.3173V123.544L88.1172 114.28H90.2053V127H87.9012V117.736L80.1253 127H78.0133ZM83.9653 112.624C82.7973 112.624 81.8773 112.344 81.2053 111.784C80.5493 111.208 80.2133 110.384 80.1973 109.312H81.7573C81.7733 109.92 81.9733 110.4 82.3573 110.752C82.7573 111.104 83.2853 111.28 83.9413 111.28C84.5973 111.28 85.1253 111.104 85.5253 110.752C85.9253 110.4 86.1333 109.92 86.1493 109.312H87.7573C87.7413 110.384 87.3973 111.208 86.7253 111.784C86.0533 112.344 85.1333 112.624 83.9653 112.624ZM98.1864 127.168C97.2264 127.168 96.2824 127.048 95.3544 126.808C94.4424 126.552 93.6264 126.192 92.9064 125.728L93.6024 123.976C94.2104 124.36 94.9064 124.664 95.6904 124.888C96.4744 125.096 97.2664 125.2 98.0664 125.2C98.8024 125.2 99.4344 125.112 99.9624 124.936C100.506 124.76 100.922 124.52 101.21 124.216C101.498 123.896 101.642 123.528 101.642 123.112C101.642 122.52 101.378 122.064 100.85 121.744C100.322 121.424 99.5864 121.264 98.6424 121.264H96.3384V119.608H98.4984C99.0584 119.608 99.5464 119.544 99.9624 119.416C100.378 119.288 100.698 119.096 100.922 118.84C101.162 118.568 101.282 118.256 101.282 117.904C101.282 117.52 101.146 117.192 100.874 116.92C100.602 116.648 100.218 116.44 99.7224 116.296C99.2424 116.152 98.6744 116.08 98.0184 116.08C97.3784 116.096 96.7224 116.184 96.0504 116.344C95.3944 116.504 94.7224 116.752 94.0344 117.088L93.4104 115.288C94.1784 114.92 94.9304 114.64 95.6664 114.448C96.4184 114.24 97.1624 114.128 97.8984 114.112C99.0024 114.08 99.9864 114.208 100.85 114.496C101.714 114.768 102.394 115.168 102.89 115.696C103.402 116.224 103.658 116.848 103.658 117.568C103.658 118.176 103.466 118.72 103.082 119.2C102.698 119.664 102.186 120.032 101.546 120.304C100.906 120.576 100.17 120.712 99.3384 120.712L99.4344 120.16C100.858 120.16 101.978 120.44 102.794 121C103.61 121.56 104.018 122.32 104.018 123.28C104.018 124.048 103.762 124.728 103.25 125.32C102.738 125.896 102.042 126.352 101.162 126.688C100.298 127.008 99.3064 127.168 98.1864 127.168ZM115.321 127V124.312L115.201 123.808V119.224C115.201 118.248 114.913 117.496 114.337 116.968C113.777 116.424 112.929 116.152 111.793 116.152C111.041 116.152 110.305 116.28 109.585 116.536C108.865 116.776 108.257 117.104 107.761 117.52L106.801 115.792C107.457 115.264 108.241 114.864 109.153 114.592C110.081 114.304 111.049 114.16 112.057 114.16C113.801 114.16 115.145 114.584 116.089 115.432C117.033 116.28 117.505 117.576 117.505 119.32V127H115.321ZM111.145 127.144C110.201 127.144 109.369 126.984 108.649 126.664C107.945 126.344 107.401 125.904 107.017 125.344C106.633 124.768 106.441 124.12 106.441 123.4C106.441 122.712 106.601 122.088 106.921 121.528C107.257 120.968 107.793 120.52 108.529 120.184C109.281 119.848 110.289 119.68 111.553 119.68H115.585V121.336H111.649C110.497 121.336 109.721 121.528 109.321 121.912C108.921 122.296 108.721 122.76 108.721 123.304C108.721 123.928 108.969 124.432 109.465 124.816C109.961 125.184 110.649 125.368 111.529 125.368C112.393 125.368 113.145 125.176 113.785 124.792C114.441 124.408 114.913 123.848 115.201 123.112L115.657 124.696C115.353 125.448 114.817 126.048 114.049 126.496C113.281 126.928 112.313 127.144 111.145 127.144ZM136.75 127L132.694 120.808L134.59 119.656L139.486 127H136.75ZM130.054 121.624V119.656H134.182V121.624H130.054ZM134.806 120.904L132.622 120.616L136.678 114.28H139.15L134.806 120.904ZM122.47 127H119.734L124.606 119.656L126.502 120.808L122.47 127ZM130.75 127H128.446V114.28H130.75V127ZM129.142 121.624H125.038V119.656H129.142V121.624ZM124.414 120.904L120.07 114.28H122.518L126.574 120.616L124.414 120.904ZM148.466 127V114.28H154.37C155.858 114.28 157.026 114.568 157.874 115.144C158.738 115.704 159.17 116.504 159.17 117.544C159.17 118.584 158.762 119.392 157.946 119.968C157.146 120.528 156.082 120.808 154.754 120.808L155.114 120.184C156.634 120.184 157.762 120.464 158.498 121.024C159.234 121.584 159.602 122.408 159.602 123.496C159.602 124.6 159.186 125.464 158.354 126.088C157.538 126.696 156.282 127 154.586 127H148.466ZM150.722 125.224H154.418C155.378 125.224 156.098 125.08 156.578 124.792C157.058 124.488 157.298 124.008 157.298 123.352C157.298 122.68 157.074 122.192 156.626 121.888C156.194 121.568 155.506 121.408 154.562 121.408H150.722V125.224ZM150.722 119.752H154.178C155.058 119.752 155.722 119.592 156.17 119.272C156.634 118.936 156.866 118.472 156.866 117.88C156.866 117.272 156.634 116.816 156.17 116.512C155.722 116.208 155.058 116.056 154.178 116.056H150.722V119.752ZM175.198 127.144C173.902 127.144 172.742 126.864 171.718 126.304C170.71 125.744 169.918 124.976 169.342 124C168.766 123.024 168.478 121.904 168.478 120.64C168.478 119.376 168.766 118.256 169.342 117.28C169.918 116.304 170.71 115.544 171.718 115C172.742 114.44 173.902 114.16 175.198 114.16C176.35 114.16 177.374 114.392 178.27 114.856C179.182 115.304 179.886 115.976 180.382 116.872L178.63 118C178.214 117.376 177.702 116.92 177.094 116.632C176.502 116.328 175.862 116.176 175.174 116.176C174.342 116.176 173.598 116.36 172.942 116.728C172.286 117.096 171.766 117.616 171.382 118.288C170.998 118.944 170.806 119.728 170.806 120.64C170.806 121.552 170.998 122.344 171.382 123.016C171.766 123.688 172.286 124.208 172.942 124.576C173.598 124.944 174.342 125.128 175.174 125.128C175.862 125.128 176.502 124.984 177.094 124.696C177.702 124.392 178.214 123.928 178.63 123.304L180.382 124.408C179.886 125.288 179.182 125.968 178.27 126.448C177.374 126.912 176.35 127.144 175.198 127.144ZM185.721 127V115.696L186.297 116.296H181.065V114.28H192.681V116.296H187.473L188.025 115.696V127H185.721ZM195.037 127V114.28H197.341V123.544L205.141 114.28H207.229V127H204.925V117.736L197.149 127H195.037ZM209.589 126.976L209.733 125.032C209.845 125.048 209.949 125.064 210.045 125.08C210.141 125.096 210.229 125.104 210.309 125.104C210.821 125.104 211.221 124.928 211.509 124.576C211.813 124.224 212.037 123.76 212.181 123.184C212.325 122.592 212.429 121.928 212.493 121.192C212.557 120.456 212.605 119.72 212.637 118.984L212.853 114.28H222.621V127H220.317V115.624L220.869 116.296H214.341L214.869 115.6L214.701 119.128C214.653 120.248 214.565 121.296 214.437 122.272C214.309 123.248 214.109 124.104 213.837 124.84C213.581 125.576 213.221 126.152 212.757 126.568C212.309 126.984 211.725 127.192 211.005 127.192C210.797 127.192 210.573 127.168 210.333 127.12C210.109 127.088 209.861 127.04 209.589 126.976ZM232.74 127.144C231.38 127.144 230.18 126.864 229.14 126.304C228.116 125.744 227.316 124.976 226.74 124C226.18 123.024 225.9 121.904 225.9 120.64C225.9 119.376 226.172 118.256 226.716 117.28C227.276 116.304 228.036 115.544 228.996 115C229.972 114.44 231.068 114.16 232.284 114.16C233.516 114.16 234.604 114.432 235.548 114.976C236.492 115.52 237.228 116.288 237.756 117.28C238.3 118.256 238.572 119.4 238.572 120.712C238.572 120.808 238.564 120.92 238.548 121.048C238.548 121.176 238.54 121.296 238.524 121.408H227.7V119.752H237.324L236.388 120.328C236.404 119.512 236.236 118.784 235.884 118.144C235.532 117.504 235.044 117.008 234.42 116.656C233.812 116.288 233.1 116.104 232.284 116.104C231.484 116.104 230.772 116.288 230.148 116.656C229.524 117.008 229.036 117.512 228.684 118.168C228.332 118.808 228.156 119.544 228.156 120.376V120.76C228.156 121.608 228.348 122.368 228.732 123.04C229.132 123.696 229.684 124.208 230.388 124.576C231.092 124.944 231.9 125.128 232.812 125.128C233.564 125.128 234.244 125 234.852 124.744C235.476 124.488 236.02 124.104 236.484 123.592L237.756 125.08C237.18 125.752 236.46 126.264 235.596 126.616C234.748 126.968 233.796 127.144 232.74 127.144ZM247.175 110.2H249.935L254.327 116.344L258.719 110.2H261.527L255.839 118.264L261.983 127H259.151L254.327 120.304L249.527 127H246.767L252.887 118.36L247.175 110.2ZM272.024 127V124.312L271.904 123.808V119.224C271.904 118.248 271.616 117.496 271.04 116.968C270.48 116.424 269.632 116.152 268.496 116.152C267.744 116.152 267.008 116.28 266.288 116.536C265.568 116.776 264.96 117.104 264.464 117.52L263.504 115.792C264.16 115.264 264.944 114.864 265.856 114.592C266.784 114.304 267.752 114.16 268.76 114.16C270.504 114.16 271.848 114.584 272.792 115.432C273.736 116.28 274.208 117.576 274.208 119.32V127H272.024ZM267.848 127.144C266.904 127.144 266.072 126.984 265.352 126.664C264.648 126.344 264.104 125.904 263.72 125.344C263.336 124.768 263.144 124.12 263.144 123.4C263.144 122.712 263.304 122.088 263.624 121.528C263.96 120.968 264.496 120.52 265.232 120.184C265.984 119.848 266.992 119.68 268.256 119.68H272.288V121.336H268.352C267.2 121.336 266.424 121.528 266.024 121.912C265.624 122.296 265.424 122.76 265.424 123.304C265.424 123.928 265.672 124.432 266.168 124.816C266.664 125.184 267.352 125.368 268.232 125.368C269.096 125.368 269.848 125.176 270.488 124.792C271.144 124.408 271.616 123.848 271.904 123.112L272.36 124.696C272.056 125.448 271.52 126.048 270.752 126.496C269.984 126.928 269.016 127.144 267.848 127.144ZM286.493 127V122.536L286.853 122.968H282.797C281.101 122.968 279.773 122.608 278.813 121.888C277.869 121.168 277.397 120.12 277.397 118.744C277.397 117.272 277.901 116.16 278.909 115.408C279.933 114.656 281.293 114.28 282.989 114.28H288.557V127H286.493ZM277.277 127L280.733 122.128H283.109L279.749 127H277.277ZM286.493 121.816V115.648L286.853 116.296H283.061C282.005 116.296 281.189 116.496 280.613 116.896C280.037 117.28 279.749 117.92 279.749 118.816C279.749 120.48 280.821 121.312 282.965 121.312H286.853L286.493 121.816ZM298.5 127.144C297.22 127.144 296.084 126.864 295.092 126.304C294.1 125.744 293.316 124.976 292.74 124C292.164 123.008 291.876 121.888 291.876 120.64C291.876 119.376 292.164 118.256 292.74 117.28C293.316 116.304 294.1 115.544 295.092 115C296.084 114.44 297.22 114.16 298.5 114.16C299.764 114.16 300.892 114.44 301.884 115C302.892 115.544 303.676 116.304 304.236 117.28C304.812 118.24 305.1 119.36 305.1 120.64C305.1 121.904 304.812 123.024 304.236 124C303.676 124.976 302.892 125.744 301.884 126.304C300.892 126.864 299.764 127.144 298.5 127.144ZM298.5 125.128C299.316 125.128 300.044 124.944 300.684 124.576C301.34 124.208 301.852 123.688 302.22 123.016C302.588 122.328 302.772 121.536 302.772 120.64C302.772 119.728 302.588 118.944 302.22 118.288C301.852 117.616 301.34 117.096 300.684 116.728C300.044 116.36 299.316 116.176 298.5 116.176C297.684 116.176 296.956 116.36 296.316 116.728C295.676 117.096 295.164 117.616 294.78 118.288C294.396 118.944 294.204 119.728 294.204 120.64C294.204 121.536 294.396 122.328 294.78 123.016C295.164 123.688 295.676 124.208 296.316 124.576C296.956 124.944 297.684 125.128 298.5 125.128Z" fill="black" fill-opacity="0.9"/>
</g>
<rect x="1.5" y="1.5" width="346" height="233" rx="6.5" stroke="#FF83C6" stroke-width="3"/>
</g>
<defs>
<clipPath id="clip0_0_1">
<rect width="1440" height="998" fill="white" transform="translate(-162 -312)"/>
</clipPath>
<clipPath id="clip1_0_1">
<rect width="349" height="236" rx="8" fill="white"/>
</clipPath>
</defs>
</svg>
